<svg t="1715328000" class="icon" viewBox="0 0 1024 1024" version="1.1" xmlns="http://www.w3.org/2000/svg" p-id="1" width="200" height="200">
  <path d="M512 645.12c-72.96 0-133.12-60.16-133.12-133.12s60.16-133.12 133.12-133.12 133.12 60.16 133.12 133.12-60.16 133.12-133.12 133.12z m0-204.8c-40.96 0-71.68 30.72-71.68 71.68s30.72 71.68 71.68 71.68 71.68-30.72 71.68-71.68-30.72-71.68-71.68-71.68z" fill="#434AF9" p-id="2"></path>
  <path d="M517.12 887.04c-28.16 0-56.32-20.48-61.44-51.2l-10.24-61.44c-20.48-5.12-40.96-15.36-61.44-25.6l-51.2 35.84c-23.04 15.36-58.88 10.24-76.8-10.24l-56.32-56.32c-20.48-20.48-25.6-53.76-10.24-76.8l35.84-51.2c-10.24-20.48-20.48-40.96-25.6-61.44L138.24 512c-30.72-5.12-51.2-33.28-51.2-61.44v-81.92c0-28.16 20.48-56.32 51.2-61.44l61.44-10.24c5.12-20.48 15.36-40.96 25.6-61.44l-35.84-51.2c-15.36-23.04-10.24-58.88 10.24-76.8l56.32-56.32c20.48-20.48 53.76-25.6 76.8-10.24l51.2 35.84c20.48-10.24 40.96-20.48 61.44-25.6L451.84 10.24c5.12-30.72 33.28-51.2 61.44-51.2h81.92c28.16 0 56.32 20.48 61.44 51.2l10.24 61.44c20.48 5.12 40.96 15.36 61.44 25.6l51.2-35.84c23.04-15.36 58.88-10.24 76.8 10.24l56.32 56.32c20.48 20.48 25.6 53.76 10.24 76.8l-35.84 51.2c10.24 20.48 20.48 40.96 25.6 61.44L972.8 332.8c30.72 5.12 51.2 33.28 51.2 61.44v81.92c0 28.16-20.48 56.32-51.2 61.44l-61.44 10.24c-5.12 20.48-15.36 40.96-25.6 61.44l35.84 51.2c15.36 23.04 10.24 58.88-10.24 76.8l-56.32 56.32c-20.48 20.48-53.76 25.6-76.8 10.24l-51.2-35.84c-20.48 10.24-40.96 20.48-61.44 25.6l-10.24 61.44c-5.12 30.72-33.28 51.2-61.44 51.2h-76.8z m-117.76-204.8c10.24 0 20.48 2.56 28.16 7.68 25.6 15.36 53.76 25.6 81.92 30.72 15.36 2.56 25.6 12.8 28.16 25.6l15.36 87.04c0 2.56 5.12 2.56 7.68 2.56h81.92c2.56 0 7.68 0 7.68-2.56l15.36-87.04c2.56-15.36 12.8-25.6 28.16-25.6 28.16-5.12 56.32-15.36 81.92-30.72 12.8-7.68 28.16-5.12 38.4 5.12l58.88 40.96c2.56 2.56 5.12 0 7.68-2.56L932.8 679.68c2.56-2.56 2.56-5.12 0-7.68l-51.2-71.68c-7.68-12.8-7.68-28.16 0-38.4 15.36-25.6 25.6-53.76 30.72-81.92 2.56-15.36 12.8-25.6 25.6-28.16l87.04-15.36c2.56 0 2.56-5.12 2.56-7.68v-81.92c0-2.56 0-7.68-2.56-7.68l-87.04-15.36c-15.36-2.56-25.6-12.8-28.16-25.6-5.12-28.16-15.36-56.32-30.72-81.92-7.68-12.8-7.68-28.16 0-38.4l51.2-71.68c2.56-2.56 2.56-5.12 0-7.68l-56.32-56.32c-2.56-2.56-5.12-2.56-7.68 0l-71.68 51.2c-12.8 7.68-28.16 7.68-38.4 0-25.6-15.36-53.76-25.6-81.92-30.72-15.36-2.56-25.6-12.8-28.16-25.6L629.76 51.2c0-2.56-5.12-2.56-7.68-2.56h-81.92c-2.56 0-7.68 0-7.68 2.56l-15.36 87.04c-2.56 15.36-12.8 25.6-28.16 25.6-28.16 5.12-56.32 15.36-81.92 30.72-12.8 7.68-28.16 5.12-38.4-5.12L309.76 148.48c-2.56-2.56-5.12 0-7.68 2.56l-56.32 56.32c-2.56 2.56-2.56 5.12 0 7.68l51.2 71.68c7.68 12.8 7.68 28.16 0 38.4-15.36 25.6-25.6 53.76-30.72 81.92-2.56 15.36-12.8 25.6-25.6 28.16L153.6 450.56c-2.56 0-2.56 5.12-2.56 7.68v81.92c0 2.56 0 7.68 2.56 7.68l87.04 15.36c15.36 2.56 25.6 12.8 28.16 25.6 5.12 28.16 15.36 56.32 30.72 81.92 7.68 12.8 7.68 28.16 0 38.4l-51.2 71.68c-2.56 2.56-2.56 5.12 0 7.68l56.32 56.32c2.56 2.56 5.12 2.56 7.68 0l71.68-51.2c7.68-5.12 15.36-10.24 25.6-10.24z" fill="#434AF9" p-id="3"></path>
</svg> 